ISO-10303-21;
HEADER;
FILE_DESCRIPTION(('ViewDefinition[DesignTransferView]'),'2;1');
FILE_NAME('/dev/null','2026-05-01T02:02:55+01:00',(''),(''),'IfcOpenShell 0.8.5','IfcOpenShell 0.8.5','Nobody');
FILE_SCHEMA(('IFC4'));
ENDSEC;
DATA;
#1=IFCPROJECT('0NeFk_M7nBJQscpmBC$2dH',$,'Princeps DC Twin',$,$,$,$,(#10),#5);
#2=IFCSIUNIT(*,.LENGTHUNIT.,.MILLI.,.METRE.);
#3=IFCSIUNIT(*,.AREAUNIT.,$,.SQUARE_METRE.);
#4=IFCSIUNIT(*,.VOLUMEUNIT.,$,.CUBIC_METRE.);
#5=IFCUNITASSIGNMENT((#4,#2,#3));
#6=IFCCARTESIANPOINT((0.,0.,0.));
#7=IFCDIRECTION((0.,0.,1.));
#8=IFCDIRECTION((1.,0.,0.));
#9=IFCAXIS2PLACEMENT3D(#6,#7,#8);
#10=IFCGEOMETRICREPRESENTATIONCONTEXT($,'Model',3,1.0000000000000001E-05,#9,$);
#11=IFCGEOMETRICREPRESENTATIONSUBCONTEXT('Body','Model',*,*,*,*,#10,$,.MODEL_VIEW.,$);
#12=IFCSITE('34pJovhSjHOgMdtm8$Pbzt',$,'Slough DC 50 MW',$,$,$,$,$,$,$,$,$,$,$);
#13=IFCRELAGGREGATES('25qQd0Bsz0Rv$LDfhU_LTD',$,$,$,#1,(#12));
#14=IFCBUILDING('3NzGgnVj1QXvxRlobpkhcx',$,'Slough DC 50 MW',$,$,$,$,$,$,$,$,$);
#15=IFCRELAGGREGATES('2qt2W_Bh9Dsun5i1fEXvau',$,$,$,#12,(#14));
#16=IFCSPACE('0j7pVhLi1JqfljNt7PHqf$',$,'HALL-1',$,$,#33,#28,$,$,$,$);
#17=IFCRELAGGREGATES('3KdnfNhVrE2xeNAcAq_BjF',$,$,$,#14,(#34,#16));
#18=IFCCARTESIANPOINTLIST2D(((0.,0.),(50.,0.),(50.,30.),(0.,30.)));
#19=IFCINDEXEDPOLYCURVE(#18,(IFCLINEINDEX((1,2,3,4,1))),$);
#20=IFCARBITRARYCLOSEDPROFILEDEF(.AREA.,$,#19);
#21=IFCCARTESIANPOINT((0.,0.,0.));
#22=IFCDIRECTION((0.,0.,1.));
#23=IFCDIRECTION((1.,0.,0.));
#24=IFCAXIS2PLACEMENT3D(#21,#22,#23);
#25=IFCDIRECTION((0.,0.,1.));
#26=IFCEXTRUDEDAREASOLID(#20,#24,#25,8.);
#27=IFCSHAPEREPRESENTATION(#11,'Body','SweptSolid',(#26));
#28=IFCPRODUCTDEFINITIONSHAPE($,$,(#27));
#29=IFCCARTESIANPOINT((-29000.,0.,0.));
#30=IFCDIRECTION((0.,0.,1.));
#31=IFCDIRECTION((1.,0.,0.));
#32=IFCAXIS2PLACEMENT3D(#29,#30,#31);
#33=IFCLOCALPLACEMENT($,#32);
#34=IFCSPACE('2IzhnrIrTHuhoI6s1HMH8W',$,'HALL-2',$,$,#50,#45,$,$,$,$);
#35=IFCCARTESIANPOINTLIST2D(((0.,0.),(50.,0.),(50.,30.),(0.,30.)));
#36=IFCINDEXEDPOLYCURVE(#35,(IFCLINEINDEX((1,2,3,4,1))),$);
#37=IFCARBITRARYCLOSEDPROFILEDEF(.AREA.,$,#36);
#38=IFCCARTESIANPOINT((0.,0.,0.));
#39=IFCDIRECTION((0.,0.,1.));
#40=IFCDIRECTION((1.,0.,0.));
#41=IFCAXIS2PLACEMENT3D(#38,#39,#40);
#42=IFCDIRECTION((0.,0.,1.));
#43=IFCEXTRUDEDAREASOLID(#37,#41,#42,8.);
#44=IFCSHAPEREPRESENTATION(#11,'Body','SweptSolid',(#43));
#45=IFCPRODUCTDEFINITIONSHAPE($,$,(#44));
#46=IFCCARTESIANPOINT((29000.,0.,0.));
#47=IFCDIRECTION((0.,0.,1.));
#48=IFCDIRECTION((1.,0.,0.));
#49=IFCAXIS2PLACEMENT3D(#46,#47,#48);
#50=IFCLOCALPLACEMENT($,#49);
#51=IFCSPACE('1LX8M01MrGXR0veu9JIodH',$,'H1-A01',$,$,#68,#63,$,$,$,$);
#52=IFCRELAGGREGATES('0jKWqMOXz6YwxokmXsNV3x',$,$,$,#16,(#69,#51));
#53=IFCCARTESIANPOINTLIST2D(((0.,0.),(42.5,0.),(42.5,1.6000000000000001),(0.,1.6000000000000001)));
#54=IFCINDEXEDPOLYCURVE(#53,(IFCLINEINDEX((1,2,3,4,1))),$);
#55=IFCARBITRARYCLOSEDPROFILEDEF(.AREA.,$,#54);
#56=IFCCARTESIANPOINT((0.,0.,0.));
#57=IFCDIRECTION((0.,0.,1.));
#58=IFCDIRECTION((1.,0.,0.));
#59=IFCAXIS2PLACEMENT3D(#56,#57,#58);
#60=IFCDIRECTION((0.,0.,1.));
#61=IFCEXTRUDEDAREASOLID(#55,#59,#60,2.3999999999999999);
#62=IFCSHAPEREPRESENTATION(#11,'Body','SweptSolid',(#61));
#63=IFCPRODUCTDEFINITIONSHAPE($,$,(#62));
#64=IFCCARTESIANPOINT((0.,-5000.,200.));
#65=IFCDIRECTION((0.,0.,1.));
#66=IFCDIRECTION((1.,0.,0.));
#67=IFCAXIS2PLACEMENT3D(#64,#65,#66);
#68=IFCLOCALPLACEMENT(#33,#67);
#69=IFCSPACE('3m7F6oOqDItBu0Q47WYtaR',$,'H1-A02',$,$,#85,#80,$,$,$,$);
#70=IFCCARTESIANPOINTLIST2D(((0.,0.),(42.5,0.),(42.5,1.6000000000000001),(0.,1.6000000000000001)));
#71=IFCINDEXEDPOLYCURVE(#70,(IFCLINEINDEX((1,2,3,4,1))),$);
#72=IFCARBITRARYCLOSEDPROFILEDEF(.AREA.,$,#71);
#73=IFCCARTESIANPOINT((0.,0.,0.));
#74=IFCDIRECTION((0.,0.,1.));
#75=IFCDIRECTION((1.,0.,0.));
#76=IFCAXIS2PLACEMENT3D(#73,#74,#75);
#77=IFCDIRECTION((0.,0.,1.));
#78=IFCEXTRUDEDAREASOLID(#72,#76,#77,2.3999999999999999);
#79=IFCSHAPEREPRESENTATION(#11,'Body','SweptSolid',(#78));
#80=IFCPRODUCTDEFINITIONSHAPE($,$,(#79));
#81=IFCCARTESIANPOINT((0.,5000.,200.));
#82=IFCDIRECTION((0.,0.,1.));
#83=IFCDIRECTION((1.,0.,0.));
#84=IFCAXIS2PLACEMENT3D(#81,#82,#83);
#85=IFCLOCALPLACEMENT(#33,#84);
#86=IFCSPACE('0pqFPUJIzHOhms0x2qPYBe',$,'H2-A01',$,$,#103,#98,$,$,$,$);
#87=IFCRELAGGREGATES('0SAvZMXI90Xw_sRDPVGflG',$,$,$,#34,(#104,#86));
#88=IFCCARTESIANPOINTLIST2D(((0.,0.),(42.5,0.),(42.5,1.6000000000000001),(0.,1.6000000000000001)));
#89=IFCINDEXEDPOLYCURVE(#88,(IFCLINEINDEX((1,2,3,4,1))),$);
#90=IFCARBITRARYCLOSEDPROFILEDEF(.AREA.,$,#89);
#91=IFCCARTESIANPOINT((0.,0.,0.));
#92=IFCDIRECTION((0.,0.,1.));
#93=IFCDIRECTION((1.,0.,0.));
#94=IFCAXIS2PLACEMENT3D(#91,#92,#93);
#95=IFCDIRECTION((0.,0.,1.));
#96=IFCEXTRUDEDAREASOLID(#90,#94,#95,2.3999999999999999);
#97=IFCSHAPEREPRESENTATION(#11,'Body','SweptSolid',(#96));
#98=IFCPRODUCTDEFINITIONSHAPE($,$,(#97));
#99=IFCCARTESIANPOINT((0.,-5000.,200.));
#100=IFCDIRECTION((0.,0.,1.));
#101=IFCDIRECTION((1.,0.,0.));
#102=IFCAXIS2PLACEMENT3D(#99,#100,#101);
#103=IFCLOCALPLACEMENT(#50,#102);
#104=IFCSPACE('2IOseji3zJxfeIervawkaH',$,'H2-A02',$,$,#120,#115,$,$,$,$);
#105=IFCCARTESIANPOINTLIST2D(((0.,0.),(42.5,0.),(42.5,1.6000000000000001),(0.,1.6000000000000001)));
#106=IFCINDEXEDPOLYCURVE(#105,(IFCLINEINDEX((1,2,3,4,1))),$);
#107=IFCARBITRARYCLOSEDPROFILEDEF(.AREA.,$,#106);
#108=IFCCARTESIANPOINT((0.,0.,0.));
#109=IFCDIRECTION((0.,0.,1.));
#110=IFCDIRECTION((1.,0.,0.));
#111=IFCAXIS2PLACEMENT3D(#108,#109,#110);
#112=IFCDIRECTION((0.,0.,1.));
#113=IFCEXTRUDEDAREASOLID(#107,#111,#112,2.3999999999999999);
#114=IFCSHAPEREPRESENTATION(#11,'Body','SweptSolid',(#113));
#115=IFCPRODUCTDEFINITIONSHAPE($,$,(#114));
#116=IFCCARTESIANPOINT((0.,5000.,200.));
#117=IFCDIRECTION((0.,0.,1.));
#118=IFCDIRECTION((1.,0.,0.));
#119=IFCAXIS2PLACEMENT3D(#116,#117,#118);
#120=IFCLOCALPLACEMENT(#50,#119);
ENDSEC;
END-ISO-10303-21;
