ISO-10303-21;
HEADER;
FILE_DESCRIPTION(('ViewDefinition[DesignTransferView]'),'2;1');
FILE_NAME('/dev/null','2026-05-01T02:02:55+01:00',(''),(''),'IfcOpenShell 0.8.5','IfcOpenShell 0.8.5','Nobody');
FILE_SCHEMA(('IFC4'));
ENDSEC;
DATA;
#1=IFCPROJECT('0u5hK3nhX1OAp_1NyqK7iI',$,'Princeps BESS Twin',$,$,$,$,(#10),#5);
#2=IFCSIUNIT(*,.LENGTHUNIT.,.MILLI.,.METRE.);
#3=IFCSIUNIT(*,.AREAUNIT.,$,.SQUARE_METRE.);
#4=IFCSIUNIT(*,.VOLUMEUNIT.,$,.CUBIC_METRE.);
#5=IFCUNITASSIGNMENT((#4,#2,#3));
#6=IFCCARTESIANPOINT((0.,0.,0.));
#7=IFCDIRECTION((0.,0.,1.));
#8=IFCDIRECTION((1.,0.,0.));
#9=IFCAXIS2PLACEMENT3D(#6,#7,#8);
#10=IFCGEOMETRICREPRESENTATIONCONTEXT($,'Model',3,1.0000000000000001E-05,#9,$);
#11=IFCGEOMETRICREPRESENTATIONSUBCONTEXT('Body','Model',*,*,*,*,#10,$,.MODEL_VIEW.,$);
#12=IFCSITE('1ukUCPmzzSUfUtvv6szfsZ',$,'Essex BESS 100 MW',$,$,$,$,$,$,$,$,$,$,$);
#13=IFCRELAGGREGATES('2ktCWIDzXFwuq1Z1nIB4Ar',$,$,$,#1,(#12));
#14=IFCBUILDING('1N4a6dpzPObvmoUpS_rz5H',$,'Essex BESS 100 MW',$,$,$,$,$,$,$,$,$);
#15=IFCRELAGGREGATES('0k7aMPNnbDUxX6vgY6$LNw',$,$,$,#12,(#14));
#16=IFCSPACE('3ISFYP_FXJ6uSWvFmIuhjo',$,'BLK-1',$,$,#33,#28,$,$,$,$);
#17=IFCRELAGGREGATES('3DNAzAWJvB9OvzU8nUIxuk',$,$,$,#14,(#34,#16));
#18=IFCCARTESIANPOINTLIST2D(((0.,0.),(12.,0.),(12.,2.5),(0.,2.5)));
#19=IFCINDEXEDPOLYCURVE(#18,(IFCLINEINDEX((1,2,3,4,1))),$);
#20=IFCARBITRARYCLOSEDPROFILEDEF(.AREA.,$,#19);
#21=IFCCARTESIANPOINT((0.,0.,0.));
#22=IFCDIRECTION((0.,0.,1.));
#23=IFCDIRECTION((1.,0.,0.));
#24=IFCAXIS2PLACEMENT3D(#21,#22,#23);
#25=IFCDIRECTION((0.,0.,1.));
#26=IFCEXTRUDEDAREASOLID(#20,#24,#25,2.6000000000000001);
#27=IFCSHAPEREPRESENTATION(#11,'Body','SweptSolid',(#26));
#28=IFCPRODUCTDEFINITIONSHAPE($,$,(#27));
#29=IFCCARTESIANPOINT((-7000.,0.,0.));
#30=IFCDIRECTION((0.,0.,1.));
#31=IFCDIRECTION((1.,0.,0.));
#32=IFCAXIS2PLACEMENT3D(#29,#30,#31);
#33=IFCLOCALPLACEMENT($,#32);
#34=IFCSPACE('1IemfQaBfHMuJMJxDAu0nU',$,'BLK-2',$,$,#50,#45,$,$,$,$);
#35=IFCCARTESIANPOINTLIST2D(((0.,0.),(12.,0.),(12.,2.5),(0.,2.5)));
#36=IFCINDEXEDPOLYCURVE(#35,(IFCLINEINDEX((1,2,3,4,1))),$);
#37=IFCARBITRARYCLOSEDPROFILEDEF(.AREA.,$,#36);
#38=IFCCARTESIANPOINT((0.,0.,0.));
#39=IFCDIRECTION((0.,0.,1.));
#40=IFCDIRECTION((1.,0.,0.));
#41=IFCAXIS2PLACEMENT3D(#38,#39,#40);
#42=IFCDIRECTION((0.,0.,1.));
#43=IFCEXTRUDEDAREASOLID(#37,#41,#42,2.6000000000000001);
#44=IFCSHAPEREPRESENTATION(#11,'Body','SweptSolid',(#43));
#45=IFCPRODUCTDEFINITIONSHAPE($,$,(#44));
#46=IFCCARTESIANPOINT((7000.,0.,0.));
#47=IFCDIRECTION((0.,0.,1.));
#48=IFCDIRECTION((1.,0.,0.));
#49=IFCAXIS2PLACEMENT3D(#46,#47,#48);
#50=IFCLOCALPLACEMENT($,#49);
#51=IFCBUILDINGELEMENTPROXY('0LYFF8lR1LY9JqOecSaSRe',$,'BLK1-R01',$,$,#68,#63,$,$);
#52=IFCRELAGGREGATES('1$RrN2rDL8swrFFiWncpfN',$,$,$,#16,(#69,#51));
#53=IFCCARTESIANPOINTLIST2D(((0.,0.),(3.2400000000000002,0.),(3.2400000000000002,1.125),(0.,1.125)));
#54=IFCINDEXEDPOLYCURVE(#53,(IFCLINEINDEX((1,2,3,4,1))),$);
#55=IFCARBITRARYCLOSEDPROFILEDEF(.AREA.,$,#54);
#56=IFCCARTESIANPOINT((0.,0.,0.));
#57=IFCDIRECTION((0.,0.,1.));
#58=IFCDIRECTION((1.,0.,0.));
#59=IFCAXIS2PLACEMENT3D(#56,#57,#58);
#60=IFCDIRECTION((0.,0.,1.));
#61=IFCEXTRUDEDAREASOLID(#55,#59,#60,2.21);
#62=IFCSHAPEREPRESENTATION(#11,'Body','SweptSolid',(#61));
#63=IFCPRODUCTDEFINITIONSHAPE($,$,(#62));
#64=IFCCARTESIANPOINT((-2699.9999999999991,0.,50.));
#65=IFCDIRECTION((0.,0.,1.));
#66=IFCDIRECTION((1.,0.,0.));
#67=IFCAXIS2PLACEMENT3D(#64,#65,#66);
#68=IFCLOCALPLACEMENT(#33,#67);
#69=IFCBUILDINGELEMENTPROXY('2$I7DEOSjO1RiQMbBhqXGn',$,'BLK1-R07',$,$,#85,#80,$,$);
#70=IFCCARTESIANPOINTLIST2D(((0.,0.),(3.2400000000000002,0.),(3.2400000000000002,1.125),(0.,1.125)));
#71=IFCINDEXEDPOLYCURVE(#70,(IFCLINEINDEX((1,2,3,4,1))),$);
#72=IFCARBITRARYCLOSEDPROFILEDEF(.AREA.,$,#71);
#73=IFCCARTESIANPOINT((0.,0.,0.));
#74=IFCDIRECTION((0.,0.,1.));
#75=IFCDIRECTION((1.,0.,0.));
#76=IFCAXIS2PLACEMENT3D(#73,#74,#75);
#77=IFCDIRECTION((0.,0.,1.));
#78=IFCEXTRUDEDAREASOLID(#72,#76,#77,2.21);
#79=IFCSHAPEREPRESENTATION(#11,'Body','SweptSolid',(#78));
#80=IFCPRODUCTDEFINITIONSHAPE($,$,(#79));
#81=IFCCARTESIANPOINT((2700.0000000000009,0.,50.));
#82=IFCDIRECTION((0.,0.,1.));
#83=IFCDIRECTION((1.,0.,0.));
#84=IFCAXIS2PLACEMENT3D(#81,#82,#83);
#85=IFCLOCALPLACEMENT(#33,#84);
#86=IFCBUILDINGELEMENTPROXY('1AKojahZnKw8F9DEPKBTRx',$,'BLK2-R03',$,$,#103,#98,$,$);
#87=IFCRELAGGREGATES('1wbgdD2ML0aeRtjFvGpN$6',$,$,$,#34,(#104,#86));
#88=IFCCARTESIANPOINTLIST2D(((0.,0.),(3.2400000000000002,0.),(3.2400000000000002,1.125),(0.,1.125)));
#89=IFCINDEXEDPOLYCURVE(#88,(IFCLINEINDEX((1,2,3,4,1))),$);
#90=IFCARBITRARYCLOSEDPROFILEDEF(.AREA.,$,#89);
#91=IFCCARTESIANPOINT((0.,0.,0.));
#92=IFCDIRECTION((0.,0.,1.));
#93=IFCDIRECTION((1.,0.,0.));
#94=IFCAXIS2PLACEMENT3D(#91,#92,#93);
#95=IFCDIRECTION((0.,0.,1.));
#96=IFCEXTRUDEDAREASOLID(#90,#94,#95,2.21);
#97=IFCSHAPEREPRESENTATION(#11,'Body','SweptSolid',(#96));
#98=IFCPRODUCTDEFINITIONSHAPE($,$,(#97));
#99=IFCCARTESIANPOINT((-2699.9999999999991,0.,50.));
#100=IFCDIRECTION((0.,0.,1.));
#101=IFCDIRECTION((1.,0.,0.));
#102=IFCAXIS2PLACEMENT3D(#99,#100,#101);
#103=IFCLOCALPLACEMENT(#50,#102);
#104=IFCBUILDINGELEMENTPROXY('3LKQBpwZjNEOgWoEbszyFs',$,'BLK2-R11',$,$,#120,#115,$,$);
#105=IFCCARTESIANPOINTLIST2D(((0.,0.),(3.2400000000000002,0.),(3.2400000000000002,1.125),(0.,1.125)));
#106=IFCINDEXEDPOLYCURVE(#105,(IFCLINEINDEX((1,2,3,4,1))),$);
#107=IFCARBITRARYCLOSEDPROFILEDEF(.AREA.,$,#106);
#108=IFCCARTESIANPOINT((0.,0.,0.));
#109=IFCDIRECTION((0.,0.,1.));
#110=IFCDIRECTION((1.,0.,0.));
#111=IFCAXIS2PLACEMENT3D(#108,#109,#110);
#112=IFCDIRECTION((0.,0.,1.));
#113=IFCEXTRUDEDAREASOLID(#107,#111,#112,2.21);
#114=IFCSHAPEREPRESENTATION(#11,'Body','SweptSolid',(#113));
#115=IFCPRODUCTDEFINITIONSHAPE($,$,(#114));
#116=IFCCARTESIANPOINT((2700.0000000000009,0.,50.));
#117=IFCDIRECTION((0.,0.,1.));
#118=IFCDIRECTION((1.,0.,0.));
#119=IFCAXIS2PLACEMENT3D(#116,#117,#118);
#120=IFCLOCALPLACEMENT(#50,#119);
ENDSEC;
END-ISO-10303-21;
