ISO-10303-21;
HEADER;
FILE_DESCRIPTION(('ViewDefinition[DesignTransferView]'),'2;1');
FILE_NAME('/dev/null','2026-05-01T09:15:17+01:00',(''),(''),'IfcOpenShell 0.8.5','IfcOpenShell 0.8.5','Nobody');
FILE_SCHEMA(('IFC4'));
ENDSEC;
DATA;
#1=IFCPROJECT('36BGlQqT90WfWLsvSscfjk',$,'Princeps DC Twin',$,$,$,$,(#10),#5);
#2=IFCSIUNIT(*,.LENGTHUNIT.,.MILLI.,.METRE.);
#3=IFCSIUNIT(*,.AREAUNIT.,$,.SQUARE_METRE.);
#4=IFCSIUNIT(*,.VOLUMEUNIT.,$,.CUBIC_METRE.);
#5=IFCUNITASSIGNMENT((#4,#2,#3));
#6=IFCCARTESIANPOINT((0.,0.,0.));
#7=IFCDIRECTION((0.,0.,1.));
#8=IFCDIRECTION((1.,0.,0.));
#9=IFCAXIS2PLACEMENT3D(#6,#7,#8);
#10=IFCGEOMETRICREPRESENTATIONCONTEXT($,'Model',3,1.0000000000000001E-05,#9,$);
#11=IFCGEOMETRICREPRESENTATIONSUBCONTEXT('Body','Model',*,*,*,*,#10,$,.MODEL_VIEW.,$);
#12=IFCSITE('34pJovhSjHOgMdtm8$Pbzt',$,'Slough DC 50 MW',$,$,$,$,$,$,$,$,$,$,$);
#13=IFCRELAGGREGATES('0j2FYld$rBDR0IV60rpdz_',$,$,$,#1,(#12));
#14=IFCBUILDING('3NzGgnVj1QXvxRlobpkhcx',$,'Slough DC 50 MW',$,$,$,$,$,$,$,$,$);
#15=IFCRELAGGREGATES('31EtsUf$5FQOBTHRzu049Q',$,$,$,#12,(#14));
#16=IFCSPACE('0j7pVhLi1JqfljNt7PHqf$',$,'HALL-1',$,$,$,#28,$,$,$,$);
#17=IFCRELAGGREGATES('1mA_pJEurFj8GLfAPFGt8I',$,$,$,#14,(#29,#16));
#18=IFCCARTESIANPOINTLIST2D(((0.,0.),(50.,0.),(50.,30.),(0.,30.)));
#19=IFCINDEXEDPOLYCURVE(#18,(IFCLINEINDEX((1,2,3,4,1))),$);
#20=IFCARBITRARYCLOSEDPROFILEDEF(.AREA.,$,#19);
#21=IFCCARTESIANPOINT((-54.,-15.,0.));
#22=IFCDIRECTION((0.,0.,1.));
#23=IFCDIRECTION((1.,0.,0.));
#24=IFCAXIS2PLACEMENT3D(#21,#22,#23);
#25=IFCDIRECTION((0.,0.,1.));
#26=IFCEXTRUDEDAREASOLID(#20,#24,#25,8.);
#27=IFCSHAPEREPRESENTATION(#11,'Body','SweptSolid',(#26));
#28=IFCPRODUCTDEFINITIONSHAPE($,$,(#27));
#29=IFCSPACE('2IzhnrIrTHuhoI6s1HMH8W',$,'HALL-2',$,$,$,#40,$,$,$,$);
#30=IFCCARTESIANPOINTLIST2D(((0.,0.),(50.,0.),(50.,30.),(0.,30.)));
#31=IFCINDEXEDPOLYCURVE(#30,(IFCLINEINDEX((1,2,3,4,1))),$);
#32=IFCARBITRARYCLOSEDPROFILEDEF(.AREA.,$,#31);
#33=IFCCARTESIANPOINT((4.,-15.,0.));
#34=IFCDIRECTION((0.,0.,1.));
#35=IFCDIRECTION((1.,0.,0.));
#36=IFCAXIS2PLACEMENT3D(#33,#34,#35);
#37=IFCDIRECTION((0.,0.,1.));
#38=IFCEXTRUDEDAREASOLID(#32,#36,#37,8.);
#39=IFCSHAPEREPRESENTATION(#11,'Body','SweptSolid',(#38));
#40=IFCPRODUCTDEFINITIONSHAPE($,$,(#39));
#41=IFCSPACE('1LX8M01MrGXR0veu9JIodH',$,'H1-A01',$,$,$,#53,$,$,$,$);
#42=IFCRELAGGREGATES('22oUwWJC185BJ_82aDcI6W',$,$,$,#16,(#54,#41));
#43=IFCCARTESIANPOINTLIST2D(((0.,0.),(42.5,0.),(42.5,1.6000000000000001),(0.,1.6000000000000001)));
#44=IFCINDEXEDPOLYCURVE(#43,(IFCLINEINDEX((1,2,3,4,1))),$);
#45=IFCARBITRARYCLOSEDPROFILEDEF(.AREA.,$,#44);
#46=IFCCARTESIANPOINT((-50.25,-5.7999999999999998,0.20000000000000001));
#47=IFCDIRECTION((0.,0.,1.));
#48=IFCDIRECTION((1.,0.,0.));
#49=IFCAXIS2PLACEMENT3D(#46,#47,#48);
#50=IFCDIRECTION((0.,0.,1.));
#51=IFCEXTRUDEDAREASOLID(#45,#49,#50,2.3999999999999999);
#52=IFCSHAPEREPRESENTATION(#11,'Body','SweptSolid',(#51));
#53=IFCPRODUCTDEFINITIONSHAPE($,$,(#52));
#54=IFCSPACE('3m7F6oOqDItBu0Q47WYtaR',$,'H1-A02',$,$,$,#65,$,$,$,$);
#55=IFCCARTESIANPOINTLIST2D(((0.,0.),(42.5,0.),(42.5,1.6000000000000001),(0.,1.6000000000000001)));
#56=IFCINDEXEDPOLYCURVE(#55,(IFCLINEINDEX((1,2,3,4,1))),$);
#57=IFCARBITRARYCLOSEDPROFILEDEF(.AREA.,$,#56);
#58=IFCCARTESIANPOINT((-50.25,4.2000000000000002,0.20000000000000001));
#59=IFCDIRECTION((0.,0.,1.));
#60=IFCDIRECTION((1.,0.,0.));
#61=IFCAXIS2PLACEMENT3D(#58,#59,#60);
#62=IFCDIRECTION((0.,0.,1.));
#63=IFCEXTRUDEDAREASOLID(#57,#61,#62,2.3999999999999999);
#64=IFCSHAPEREPRESENTATION(#11,'Body','SweptSolid',(#63));
#65=IFCPRODUCTDEFINITIONSHAPE($,$,(#64));
#66=IFCSPACE('0pqFPUJIzHOhms0x2qPYBe',$,'H2-A01',$,$,$,#78,$,$,$,$);
#67=IFCRELAGGREGATES('1H5gprakr3_RN8xdmzIyWL',$,$,$,#29,(#66,#79));
#68=IFCCARTESIANPOINTLIST2D(((0.,0.),(42.5,0.),(42.5,1.6000000000000001),(0.,1.6000000000000001)));
#69=IFCINDEXEDPOLYCURVE(#68,(IFCLINEINDEX((1,2,3,4,1))),$);
#70=IFCARBITRARYCLOSEDPROFILEDEF(.AREA.,$,#69);
#71=IFCCARTESIANPOINT((7.75,-5.7999999999999998,0.20000000000000001));
#72=IFCDIRECTION((0.,0.,1.));
#73=IFCDIRECTION((1.,0.,0.));
#74=IFCAXIS2PLACEMENT3D(#71,#72,#73);
#75=IFCDIRECTION((0.,0.,1.));
#76=IFCEXTRUDEDAREASOLID(#70,#74,#75,2.3999999999999999);
#77=IFCSHAPEREPRESENTATION(#11,'Body','SweptSolid',(#76));
#78=IFCPRODUCTDEFINITIONSHAPE($,$,(#77));
#79=IFCSPACE('2IOseji3zJxfeIervawkaH',$,'H2-A02',$,$,$,#90,$,$,$,$);
#80=IFCCARTESIANPOINTLIST2D(((0.,0.),(42.5,0.),(42.5,1.6000000000000001),(0.,1.6000000000000001)));
#81=IFCINDEXEDPOLYCURVE(#80,(IFCLINEINDEX((1,2,3,4,1))),$);
#82=IFCARBITRARYCLOSEDPROFILEDEF(.AREA.,$,#81);
#83=IFCCARTESIANPOINT((7.75,4.2000000000000002,0.20000000000000001));
#84=IFCDIRECTION((0.,0.,1.));
#85=IFCDIRECTION((1.,0.,0.));
#86=IFCAXIS2PLACEMENT3D(#83,#84,#85);
#87=IFCDIRECTION((0.,0.,1.));
#88=IFCEXTRUDEDAREASOLID(#82,#86,#87,2.3999999999999999);
#89=IFCSHAPEREPRESENTATION(#11,'Body','SweptSolid',(#88));
#90=IFCPRODUCTDEFINITIONSHAPE($,$,(#89));
ENDSEC;
END-ISO-10303-21;
