ISO-10303-21;
HEADER;
FILE_DESCRIPTION(('ViewDefinition[DesignTransferView]'),'2;1');
FILE_NAME('/dev/null','2026-05-01T09:15:18+01:00',(''),(''),'IfcOpenShell 0.8.5','IfcOpenShell 0.8.5','Nobody');
FILE_SCHEMA(('IFC4'));
ENDSEC;
DATA;
#1=IFCPROJECT('2e3beJadv99RaqXrMka0aj',$,'Princeps BESS Twin',$,$,$,$,(#10),#5);
#2=IFCSIUNIT(*,.LENGTHUNIT.,.MILLI.,.METRE.);
#3=IFCSIUNIT(*,.AREAUNIT.,$,.SQUARE_METRE.);
#4=IFCSIUNIT(*,.VOLUMEUNIT.,$,.CUBIC_METRE.);
#5=IFCUNITASSIGNMENT((#3,#4,#2));
#6=IFCCARTESIANPOINT((0.,0.,0.));
#7=IFCDIRECTION((0.,0.,1.));
#8=IFCDIRECTION((1.,0.,0.));
#9=IFCAXIS2PLACEMENT3D(#6,#7,#8);
#10=IFCGEOMETRICREPRESENTATIONCONTEXT($,'Model',3,1.0000000000000001E-05,#9,$);
#11=IFCGEOMETRICREPRESENTATIONSUBCONTEXT('Body','Model',*,*,*,*,#10,$,.MODEL_VIEW.,$);
#12=IFCSITE('1ukUCPmzzSUfUtvv6szfsZ',$,'Essex BESS 100 MW',$,$,$,$,$,$,$,$,$,$,$);
#13=IFCRELAGGREGATES('0wtPNRuEzAzBZ_CEoD2Oi_',$,$,$,#1,(#12));
#14=IFCBUILDING('1N4a6dpzPObvmoUpS_rz5H',$,'Essex BESS 100 MW',$,$,$,$,$,$,$,$,$);
#15=IFCRELAGGREGATES('00WVYt3zH2df$FCitackFL',$,$,$,#12,(#14));
#16=IFCSPACE('3ISFYP_FXJ6uSWvFmIuhjo',$,'BLK-1',$,$,$,#28,$,$,$,$);
#17=IFCRELAGGREGATES('05A4OPo1n1Gh7lG763SWsK',$,$,$,#14,(#16,#29));
#18=IFCCARTESIANPOINTLIST2D(((0.,0.),(12.,0.),(12.,2.5),(0.,2.5)));
#19=IFCINDEXEDPOLYCURVE(#18,(IFCLINEINDEX((1,2,3,4,1))),$);
#20=IFCARBITRARYCLOSEDPROFILEDEF(.AREA.,$,#19);
#21=IFCCARTESIANPOINT((-13.,-1.25,0.));
#22=IFCDIRECTION((0.,0.,1.));
#23=IFCDIRECTION((1.,0.,0.));
#24=IFCAXIS2PLACEMENT3D(#21,#22,#23);
#25=IFCDIRECTION((0.,0.,1.));
#26=IFCEXTRUDEDAREASOLID(#20,#24,#25,2.6000000000000001);
#27=IFCSHAPEREPRESENTATION(#11,'Body','SweptSolid',(#26));
#28=IFCPRODUCTDEFINITIONSHAPE($,$,(#27));
#29=IFCSPACE('1IemfQaBfHMuJMJxDAu0nU',$,'BLK-2',$,$,$,#40,$,$,$,$);
#30=IFCCARTESIANPOINTLIST2D(((0.,0.),(12.,0.),(12.,2.5),(0.,2.5)));
#31=IFCINDEXEDPOLYCURVE(#30,(IFCLINEINDEX((1,2,3,4,1))),$);
#32=IFCARBITRARYCLOSEDPROFILEDEF(.AREA.,$,#31);
#33=IFCCARTESIANPOINT((1.,-1.25,0.));
#34=IFCDIRECTION((0.,0.,1.));
#35=IFCDIRECTION((1.,0.,0.));
#36=IFCAXIS2PLACEMENT3D(#33,#34,#35);
#37=IFCDIRECTION((0.,0.,1.));
#38=IFCEXTRUDEDAREASOLID(#32,#36,#37,2.6000000000000001);
#39=IFCSHAPEREPRESENTATION(#11,'Body','SweptSolid',(#38));
#40=IFCPRODUCTDEFINITIONSHAPE($,$,(#39));
#41=IFCBUILDINGELEMENTPROXY('0LYFF8lR1LY9JqOecSaSRe',$,'BLK1-R01',$,$,$,#53,$,$);
#42=IFCRELAGGREGATES('1F2bagTev0rxBDeNdmAShU',$,$,$,#16,(#54,#41));
#43=IFCCARTESIANPOINTLIST2D(((0.,0.),(3.2400000000000002,0.),(3.2400000000000002,1.125),(0.,1.125)));
#44=IFCINDEXEDPOLYCURVE(#43,(IFCLINEINDEX((1,2,3,4,1))),$);
#45=IFCARBITRARYCLOSEDPROFILEDEF(.AREA.,$,#44);
#46=IFCCARTESIANPOINT((-11.32,-0.5625,0.050000000000000003));
#47=IFCDIRECTION((0.,0.,1.));
#48=IFCDIRECTION((1.,0.,0.));
#49=IFCAXIS2PLACEMENT3D(#46,#47,#48);
#50=IFCDIRECTION((0.,0.,1.));
#51=IFCEXTRUDEDAREASOLID(#45,#49,#50,2.21);
#52=IFCSHAPEREPRESENTATION(#11,'Body','SweptSolid',(#51));
#53=IFCPRODUCTDEFINITIONSHAPE($,$,(#52));
#54=IFCBUILDINGELEMENTPROXY('2$I7DEOSjO1RiQMbBhqXGn',$,'BLK1-R07',$,$,$,#65,$,$);
#55=IFCCARTESIANPOINTLIST2D(((0.,0.),(3.2400000000000002,0.),(3.2400000000000002,1.125),(0.,1.125)));
#56=IFCINDEXEDPOLYCURVE(#55,(IFCLINEINDEX((1,2,3,4,1))),$);
#57=IFCARBITRARYCLOSEDPROFILEDEF(.AREA.,$,#56);
#58=IFCCARTESIANPOINT((-5.919999999999999,-0.5625,0.050000000000000003));
#59=IFCDIRECTION((0.,0.,1.));
#60=IFCDIRECTION((1.,0.,0.));
#61=IFCAXIS2PLACEMENT3D(#58,#59,#60);
#62=IFCDIRECTION((0.,0.,1.));
#63=IFCEXTRUDEDAREASOLID(#57,#61,#62,2.21);
#64=IFCSHAPEREPRESENTATION(#11,'Body','SweptSolid',(#63));
#65=IFCPRODUCTDEFINITIONSHAPE($,$,(#64));
#66=IFCBUILDINGELEMENTPROXY('1AKojahZnKw8F9DEPKBTRx',$,'BLK2-R03',$,$,$,#78,$,$);
#67=IFCRELAGGREGATES('1wwbd68tL8v9qKMZxhUTGm',$,$,$,#29,(#79,#66));
#68=IFCCARTESIANPOINTLIST2D(((0.,0.),(3.2400000000000002,0.),(3.2400000000000002,1.125),(0.,1.125)));
#69=IFCINDEXEDPOLYCURVE(#68,(IFCLINEINDEX((1,2,3,4,1))),$);
#70=IFCARBITRARYCLOSEDPROFILEDEF(.AREA.,$,#69);
#71=IFCCARTESIANPOINT((2.6800000000000006,-0.5625,0.050000000000000003));
#72=IFCDIRECTION((0.,0.,1.));
#73=IFCDIRECTION((1.,0.,0.));
#74=IFCAXIS2PLACEMENT3D(#71,#72,#73);
#75=IFCDIRECTION((0.,0.,1.));
#76=IFCEXTRUDEDAREASOLID(#70,#74,#75,2.21);
#77=IFCSHAPEREPRESENTATION(#11,'Body','SweptSolid',(#76));
#78=IFCPRODUCTDEFINITIONSHAPE($,$,(#77));
#79=IFCBUILDINGELEMENTPROXY('3LKQBpwZjNEOgWoEbszyFs',$,'BLK2-R11',$,$,$,#90,$,$);
#80=IFCCARTESIANPOINTLIST2D(((0.,0.),(3.2400000000000002,0.),(3.2400000000000002,1.125),(0.,1.125)));
#81=IFCINDEXEDPOLYCURVE(#80,(IFCLINEINDEX((1,2,3,4,1))),$);
#82=IFCARBITRARYCLOSEDPROFILEDEF(.AREA.,$,#81);
#83=IFCCARTESIANPOINT((8.0800000000000018,-0.5625,0.050000000000000003));
#84=IFCDIRECTION((0.,0.,1.));
#85=IFCDIRECTION((1.,0.,0.));
#86=IFCAXIS2PLACEMENT3D(#83,#84,#85);
#87=IFCDIRECTION((0.,0.,1.));
#88=IFCEXTRUDEDAREASOLID(#82,#86,#87,2.21);
#89=IFCSHAPEREPRESENTATION(#11,'Body','SweptSolid',(#88));
#90=IFCPRODUCTDEFINITIONSHAPE($,$,(#89));
ENDSEC;
END-ISO-10303-21;
